<svg id="Group_909" data-name="Group 909" xmlns="http://www.w3.org/2000/svg" xmlns:xlink="http://www.w3.org/1999/xlink" width="101.801" height="84.078" viewBox="0 0 101.801 84.078">
  <defs>
    <clipPath id="clip-path">
      <rect id="Rectangle_426" data-name="Rectangle 426" width="101.801" height="84.078" fill="#fff"/>
    </clipPath>
  </defs>
  <g id="Group_908" data-name="Group 908" clip-path="url(#clip-path)">
    <path id="Path_193" data-name="Path 193" d="M99.659,37.446c-.9-.942-1.85-1.837-2.771-2.758q-16.046-16.055-32.1-32.1C61.33-.87,58.257-.858,54.83,2.6c-1.271,1.281-2.409,2.694-3.972,4.458-1.736-1.942-3.041-3.6-4.546-5.044-2.811-2.7-6.03-2.625-8.814.153Q19.9,19.732,2.334,37.343c-3.114,3.122-3.121,6.3.028,9.455Q19.919,64.41,37.535,81.965c2.847,2.837,6.117,2.809,8.985-.037,1.431-1.421,2.73-2.974,4.434-4.848,1.557,1.75,2.745,3.214,4.067,4.545,3.236,3.257,6.329,3.249,9.6.006q7.4-7.344,14.756-14.73Q89.509,56.765,99.63,46.612c2.9-2.925,2.878-6.187.03-9.166M74.948,44.861q-15.043,15.062-30.1,30.107c-2.3,2.3-3.335,2.333-5.621.053q-15.3-15.26-30.55-30.565c-1.754-1.759-1.762-3.061,0-4.829Q24.09,24.171,39.559,8.768a15.8,15.8,0,0,1,2.393-1.614A14.1,14.1,0,0,1,44.37,8.707Q59.69,23.948,74.946,39.252c2.282,2.286,2.271,3.336,0,5.609M41.833,54.977a6.47,6.47,0,0,0-6.445,6.71,6.63,6.63,0,1,0,6.445-6.71m.949-20.41A6.476,6.476,0,0,0,36.2,41.142a6.637,6.637,0,1,0,13.272.111,6.475,6.475,0,0,0-6.692-6.687m18.678.856a6.467,6.467,0,0,0-6.516,6.64,6.638,6.638,0,1,0,13.275-.017,6.484,6.484,0,0,0-6.759-6.623m-38.733,0a6.445,6.445,0,0,0-6.906,6.44,6.618,6.618,0,1,0,13.229.37,6.486,6.486,0,0,0-6.324-6.81M41.93,29.1a6.511,6.511,0,0,0,6.72-6.673,6.637,6.637,0,0,0-13.273.065A6.506,6.506,0,0,0,41.93,29.1" transform="translate(0 0)" fill="#fff"/>
  </g>
</svg>
