<?xml version="1.0" encoding="UTF-8"?>
<svg id="Layer_1" data-name="Layer 1" xmlns="http://www.w3.org/2000/svg" viewBox="0 0 83.07 39.25">
  <defs>
    <style>
      .cls-1 {
        fill: #fff;
      }

      .cls-2 {
        fill: #fcfcfc;
      }
    </style>
  </defs>
  <g id="Group_763" data-name="Group 763">
    <g id="Group_762" data-name="Group 762">
      <path id="Path_116" data-name="Path 116" class="cls-1" d="M32.57,39.23H6.61c-3.4,.25-6.35-2.31-6.6-5.71-.02-.28-.02-.57,0-.85C0,23.92,0,15.16,.01,6.4-.13,3.01,2.51,.14,5.91,0c.18,0,.37,0,.55,0H58.77c3.37-.13,6.21,2.49,6.34,5.86,0,.15,0,.3,0,.45,.01,8.86,.01,17.73,0,26.59,.12,3.37-2.52,6.19-5.89,6.31-.15,0-.31,0-.46,0h-26.2m14.46-17.34c.11-.03,.21-.05,.32-.06,1.11,0,2.22-.02,3.34,0,1.82,0,1.79,.01,1.8-1.79,0-.68-.16-.94-.88-.91-1.51,.05-3.01,.02-4.56,.02v-4.12h6.28v-2.5h-9.22V28.67h9.52v-2.69h-6.59v-4.09ZM30.72,12.48c0,.14,0,.29,.03,.43,1.37,5.09,2.74,10.19,4.1,15.28,.04,.34,.35,.58,.69,.53,.02,0,.03,0,.05,0,.61-.04,1.22-.04,1.83,0,.54,.04,.72-.19,.86-.68,1.29-4.89,2.62-9.78,3.92-14.67,.07-.26,.09-.54,.15-.9-.83,0-1.54,.03-2.25,0-.53-.03-.75,.18-.86,.68-.71,3.07-1.46,6.13-2.18,9.2-.16,.69-.29,1.39-.43,2.08-.22-.59-.39-1.19-.51-1.81-.75-3.17-1.51-6.34-2.28-9.5-.06-.24-.35-.59-.57-.6-.81-.07-1.63-.03-2.54-.03m-12.81,13.51v-2.56c0-3.44,0-6.9-.03-10.35,0-.22-.24-.59-.38-.6-.83-.06-1.68-.03-2.58-.03v7.74c0,2.58,0,5.15,0,7.72,0,.36-.1,.77,.51,.77,2.73-.01,5.47,0,8.2-.02,.17,0,.48-.22,.48-.35,.05-.75,.02-1.52,.02-2.34h-6.22Zm8.21,2.66h2.87V12.52h-2.87V28.65ZM11.15,7.84c.02-1.58-1.24-2.87-2.82-2.89,0,0-.01,0-.02,0-1.59-.05-2.93,1.2-2.98,2.8-.05,1.59,1.2,2.93,2.8,2.98,.05,0,.1,0,.16,0,1.58,0,2.86-1.28,2.86-2.86,0,0,0-.01,0-.02"/>
      <path id="Path_117" data-name="Path 117" class="cls-2" d="M83.06,19.64c0,3.5,.04,7.01-.03,10.51-.03,.78-.27,1.55-.69,2.2-.69,.95-1.95,1.27-3.01,.77-3.22-1.37-6.42-2.78-9.61-4.21-1.04-.44-1.68-1.49-1.61-2.62,.01-4.46,.01-8.92,0-13.38-.05-1.15,.63-2.22,1.71-2.64,3.07-1.38,6.15-2.74,9.25-4.06,1.32-.71,2.96-.21,3.67,1.11,.24,.45,.35,.96,.31,1.47,.05,3.61,.01,7.22,.01,10.83h0"/>
    </g>
  </g>
</svg>