<?xml version="1.0" encoding="UTF-8"?>
<svg id="Layer_1" data-name="Layer 1" xmlns="http://www.w3.org/2000/svg" xmlns:xlink="http://www.w3.org/1999/xlink" viewBox="0 0 68.37 93.8">
  <defs>
    <style>
      .cls-1 {
        fill: #fff;
      }

      .cls-2 {
        clip-path: url(#clippath);
      }

      .cls-3 {
        fill: none;
      }
    </style>
    <clipPath id="clippath">
      <rect class="cls-3" x="0" width="68.36" height="93.8"/>
    </clipPath>
  </defs>
  <g id="Group_911" data-name="Group 911">
    <g class="cls-2">
      <g id="Group_910" data-name="Group 910">
        <path id="Path_194" data-name="Path 194" class="cls-1" d="M36.38,0c1.26,.41,2.47,.96,3.62,1.62,1.16,.95,2.23,2,3.22,3.13,6.26-3.12,13.24,1.23,13.32,8.48,5.02,.14,8.98,4.33,8.84,9.36-.05,1.62-.52,3.2-1.38,4.57,4.31,2.63,5.66,8.25,3.03,12.56-.86,1.41-2.09,2.56-3.55,3.33,2.42,4.37,.84,9.87-3.53,12.29-1.28,.71-2.71,1.1-4.17,1.13,3.22,9.75,6.42,19.45,9.71,29.38l-16.7-10.13c-2.45,6.01-4.87,11.94-7.38,18.09l-7.99-24.15c-2.69,8.14-5.3,16-7.99,24.14l-7.38-18.09L1.35,85.83c3.42-10.35,6.77-20.47,10.15-30.72-3.32-.42-5.98-1.87-7.52-4.93-1.47-2.85-1.32-6.26,.4-8.97C.08,38.6-1.29,32.98,1.33,28.68c.86-1.41,2.09-2.56,3.55-3.33-1.59-2.85-1.51-6.34,.21-9.12,1.82-2.99,4.63-4.29,8.13-4.35,.05-3.28,1.88-6.27,4.77-7.8,2.83-1.58,6.29-1.49,9.03,.25,.85-.97,1.79-1.85,2.81-2.64,1.22-.66,2.49-1.23,3.8-1.68h2.75Zm-3.06,14.7l.41-.12c.84,.87,1.62,1.79,2.35,2.76,.6,.92,1.5,1.6,2.54,1.94,3.04,1.02,5.63,3.05,7.34,5.76,3.24,5.07,3.75,10.52,2.23,16.24-1.01,3.79-2.09,7.56-3.09,11.36-.16,.85-.26,1.7-.3,2.56,.4-.18,.56-.24,.71-.33,11.45-6.27,15.64-20.63,9.37-32.08-6.27-11.45-20.63-15.64-32.08-9.37-8.7,4.77-13.5,14.46-12.01,24.27,1.24,7.78,5.49,13.54,12.38,17.36,.58,.4,1.35,.38,1.9-.05-.78-3.79,.55-7.15,2.66-10.19,1.65-2.37,3.61-4.51,5.45-6.74,.43-.53,.92-1,1.46-1.58-.96,.05-1.92,.04-2.88-.02-.9-.14-1.79-.36-2.66-.64-1.03-.35-2.18-.1-2.97,.65-.49,.46-1.01,.88-1.57,1.25-2.04,1.31-4.76,.76-6.13-1.25-.45-.99-.64-2.09-.55-3.17-.1-1.04,.37-2.05,1.24-2.65,2.67-1.99,5.08-4.3,7.2-6.87,.47-.51,1.04-.93,1.67-1.22,.58-.33,1.28-.44,1.83-.81,.38-.26,.87-.79,.83-1.16-.09-1.11,.56-1.23,1.36-1.36,1.19-.19,1.33-.4,1.31-1.64-.01-.96,0-1.93,0-2.89m-8.4,66.42c.13-.17,.2-.23,.23-.31,1.41-4.24,2.82-8.48,4.22-12.72,.16-.49-.07-.65-.41-.94-1.01-.81-1.97-1.69-2.87-2.63-.43-.64-1.26-.88-1.97-.55-2.82,1.18-6.06,.76-8.48-1.1-.57-.42-1.09-.91-1.7-1.42l-4.73,14.32,.18,.11,10.73-6.49,4.79,11.74m21.76-11.74l11.01,6.67c-1.59-4.79-3.1-9.35-4.63-13.98-3.55,3.78-7.5,4.18-11.7,2.04l-4.02,3.63c1.43,4.33,2.92,8.82,4.48,13.54,1.67-4.08,3.25-7.95,4.87-11.91"/>
      </g>
    </g>
  </g>
</svg>