<svg xmlns="http://www.w3.org/2000/svg" xmlns:xlink="http://www.w3.org/1999/xlink" width="99.354" height="79.158" viewBox="0 0 99.354 79.158">
  <defs>
    <clipPath id="clip-path">
      <rect id="Rectangle_425" data-name="Rectangle 425" width="99.354" height="79.158" fill="#fff"/>
    </clipPath>
  </defs>
  <g id="Group_904" data-name="Group 904" transform="translate(0 0)">
    <g id="Group_903" data-name="Group 903" transform="translate(0 0)" clip-path="url(#clip-path)">
      <path id="Path_192" data-name="Path 192" d="M15.137,6.754c1.051,1.064,2.124,2.151,3.6,3.666a.608.608,0,0,0,.583.158c3.911-1.034,6.071-1.586,9.951-2.532a.619.619,0,0,0,.434-.416c.263-.88.486-1.647.692-2.352a.587.587,0,0,0-.368-.718A22.324,22.324,0,0,0,14.4,4.844a.6.6,0,0,0-.193.968l.929.942M4.446,25.408a.6.6,0,0,0,.6.2l8.466-2.164a.6.6,0,0,0,.425-.425c1.073-3.929,1.682-6.079,2.825-9.916a.614.614,0,0,0-.14-.587c-1.48-1.555-2.553-2.641-3.6-3.705-.587-.6-1.169-1.191-1.813-1.844a.611.611,0,0,0-.753-.092A22.676,22.676,0,0,0,.688,20.45a.615.615,0,0,0,.118.526c1.1,1.367,2.12,2.619,3.64,4.432M39.958,16.32a.6.6,0,0,0,.574.171l.832-.206c.25-.574.526-1.126.806-1.682a22.7,22.7,0,0,0-8.234-8.274.589.589,0,0,0-.858.355c-.149.526-.307,1.091-.482,1.7a.617.617,0,0,0,.158.591c2.851,2.834,4.415,4.428,7.2,7.341M14.633,26.236l-.009-.035-.009-.009-.039.013L9.561,27.488l-3.784.968a.6.6,0,0,0-.434.464c-.71,3.583-1.029,5.414-1.6,8.742a.321.321,0,0,0,.07.162,51.962,51.962,0,0,0,6.767,6.732.385.385,0,0,0,.188.092c.254-.031.486-.061.723-.092a41.5,41.5,0,0,1,3.767-3.894,4.827,4.827,0,0,1,3.491-1.235,4.786,4.786,0,0,1,2.12-2.939c.311-.193.631-.359.946-.543.131-.473.272-.977.425-1.52a.622.622,0,0,0-.153-.591c-2.93-2.913-4.507-4.516-7.45-7.6m10.14,5.7c3.981-.968,6.136-1.524,10.262-2.628a.152.152,0,0,0,.105-.1c1.2-4.038,1.809-6.184,2.891-10.21-.048-.2-.1-.372-.145-.574-2.9-3.027-4.463-4.616-7.441-7.569a.146.146,0,0,0-.1-.039l-.035,0h0c-3.657.894-5.768,1.428-9.031,2.291-.39.105-.8.215-1.231.328-.149.145-.276.272-.42.412-1.156,3.876-1.761,6.018-2.821,9.969.053.2.1.372.149.574,2.825,2.952,4.38,4.538,7.258,7.385.2.057.368.105.565.158M.061,24.733c-.022.394-.061.78-.061,1.178a22.437,22.437,0,0,0,1.432,7.844c.307-1.721.609-3.342,1.082-5.711l-.131-.5C1.467,26.446.736,25.557.061,24.733M88.737,6.561A28.55,28.55,0,0,0,77.385.863a.8.8,0,0,0-.95.526,27.258,27.258,0,0,1-1.511,3.557C71.77,11.134,66.15,17.257,59.112,22.189c-.508.355-1.021.688-1.533,1.012a.811.811,0,0,0-.293,1.047A40.389,40.389,0,0,0,62.826,32.5a.816.816,0,0,0,1.187.035L88.79,7.761a.817.817,0,0,0-.053-1.2m-21.847,30c.4.346.81.67,1.222.994a4.82,4.82,0,0,1,2.181.907,41.269,41.269,0,0,1,3.228,2.759c.534.3,1.069.6,1.612.88a.808.808,0,0,0,1.042-.289c.333-.512.67-1.025,1.025-1.533C83.372,31.465,91,25.369,97.983,22.955a.8.8,0,0,0,.526-.942,28.759,28.759,0,0,0-5.681-11.357.819.819,0,0,0-1.2-.053L66.855,35.377a.811.811,0,0,0,.035,1.183M42.809,30.165a46.34,46.34,0,0,1,14.5,1.783,44.448,44.448,0,0,1-3.443-5.576.792.792,0,0,0-1.077-.333,48.892,48.892,0,0,1-10.446,4.152c.158,0,.311-.022.469-.026m14-11.265h0C63.321,14.34,68.485,8.734,71.345,3.123A24.241,24.241,0,0,0,72.628.109C71.9.053,71.165,0,70.421,0A28.7,28.7,0,0,0,53.234,5.685a.834.834,0,0,0-.337.679A40.864,40.864,0,0,0,55.375,19.85c.477-.315.959-.618,1.432-.95M88.041,50.163a44.759,44.759,0,0,1-8.585-1.949,37.291,37.291,0,0,1,2.864,5.028A5.629,5.629,0,0,1,82.8,55.13,28.729,28.729,0,0,0,88.453,51.6a.805.805,0,0,0-.412-1.432M98.229,27.151c-5.878,2.418-12.487,7.932-17.739,15.43-.333.473-.635.955-.95,1.432a40.813,40.813,0,0,0,13.477,2.479.84.84,0,0,0,.683-.342,28.889,28.889,0,0,0,5.633-18.277.813.813,0,0,0-1.1-.723m-55.45-1.275a47.518,47.518,0,0,0,8.493-3.57.8.8,0,0,0,.368-.985,44.859,44.859,0,0,1-2.413-9.969.8.8,0,0,0-1.432-.407A28.745,28.745,0,0,0,41.745,25a.811.811,0,0,0,1.034.88M63.01,39.227a.791.791,0,0,0-.407-.863,39.407,39.407,0,0,0-19.67-4.187A39.183,39.183,0,0,0,22.995,39.9a.782.782,0,0,0-.346.863,80.025,80.025,0,0,1,2.085,16.07A79.2,79.2,0,0,1,23.494,73.7a.788.788,0,0,0,.394.85,39.106,39.106,0,0,0,20.406,4.59,39.438,39.438,0,0,0,19.224-5.282.784.784,0,0,0,.359-.876,81.72,81.72,0,0,1-.867-33.752M35.688,61.718a2.39,2.39,0,0,1-1.726-.653,2.415,2.415,0,0,1-.758-1.682l-.145-4.818a2.41,2.41,0,0,1,4.818-.145l.145,4.818a2.4,2.4,0,0,1-2.335,2.479m8.028-.241a2.416,2.416,0,0,1-2.483-2.339l-.145-4.814a2.41,2.41,0,0,1,4.818-.149l.145,4.818a2.412,2.412,0,0,1-2.335,2.483m8.028-.245A2.409,2.409,0,0,1,49.261,58.9l-.145-4.818a2.41,2.41,0,1,1,4.818-.145l.145,4.818a2.408,2.408,0,0,1-2.334,2.479M19.276,44.071a.809.809,0,0,0-1.327-.429A36.992,36.992,0,0,0,8.515,57.049a1.543,1.543,0,0,0,.039,1.231,36.993,36.993,0,0,0,10.1,12.711.806.806,0,0,0,1.3-.5A76.1,76.1,0,0,0,20.721,56.9a76.693,76.693,0,0,0-1.445-12.824M67.85,41.649a.813.813,0,0,0-1.288.5,78.654,78.654,0,0,0,.7,27.58.806.806,0,0,0,1.31.438,36.944,36.944,0,0,0,10.135-14.02,1.561,1.561,0,0,0-.035-1.231A37.041,37.041,0,0,0,67.85,41.649" transform="translate(0 0.001)" fill="#fff"/>
    </g>
  </g>
</svg>
