<?xml version="1.0" encoding="UTF-8"?><svg id="Layer_1" xmlns="http://www.w3.org/2000/svg" viewBox="0 0 549 327.5"><defs><style>.cls-1{fill:#df1931;}</style></defs><path class="cls-1" d="m171,99.67s16.38-27.95-11.56-44.33c0,0-2.89-21.2-20.24-24.09,0,0,11.08,18.79,1.45,21.68l-46.76,3.18s-8.21-6.24,0-21.09c0,0-12.99.57-22.14,25.14L12,216.27l117.57-12.53,41.44-104.07Zm-98.05,67.94l26.25-72.28,34.69-1.93-26.02,74.2h-34.93Z"/><path class="cls-1" d="m540,173.18l-58.5-5.57,38.94-106.97h-24.45s-5.52-7.71.26-22.17c0,0-15.42-.96-18.31,22.17l-54.93,144.55,79.18,8.78c12.19,81.65-97.01,10.97-97.01,10.97-29.46-21-50.32-35.34-65.11-45.18l31.86-6.59,47.22-118.32h-5.78s-8.67-20.24-19.27-20.24c0,0,6.75,13.49,1.93,17.35h-20.24l-35.17,92.78-23.61,14.19-8.67-11.56,37.58-96.37h-27.95s-4.23-14.46,3.19-18.31c0,0-15.71-3.74-20.05,17.4l-36.89,101.96c-23.22-.39-43.47,5.12-60.76,13.58l-2.1.04,6.75-23.13h29.87l13.49-39.51h-29.87l5.78-15.42h51.07l13.49-38.55h-7.71s-4.33-19.33-19.51-20.27c0,0,8.91,14.49,1.2,21.23l-50.11-.96s-7.71-10.61.96-20.25c0,0-13.49-1.93-21.2,25.06l-55.89,150.33,14.7-.99c-17.82,19.5-26.74,37.13-26.74,37.13l-11.56-5.78-20.24,79.99,54.93-65.53-9.88-6.77c108.17-116.58,177.56-52.01,177.56-52.01,112.75,82.88,142.62,83.84,142.62,83.84,68.49,20.95,65.9-40.6,63.21-61.34l15.72-39.57Z"/><path class="cls-1" d="m412.4,200.37l58.78-144.55h-26.02s-6.75-9.64,2.89-23.13c0,0-18.31,2.89-19.27,25.06l-56.86,140.7,40.47,1.93Z"/><path class="cls-1" d="m243.29,180.64c-13.87,3-29.44,9.07-46.52,19.74l40.88-2.75,5.64-16.99Z"/><path class="cls-1" d="m123.1,46.43c2.07-.88,3.84-2.13,5.32-3.77,1.47-1.63,2.62-3.6,3.45-5.92.82-2.31,1.23-4.9,1.23-7.77,0-3.6-.97-6.44-2.91-8.51-1.94-2.07-4.8-3.11-8.58-3.11h-10.64l-6.43,30.39h11.66c2.53,0,4.82-.44,6.9-1.32Zm-8.9-25.67h6.47c1.67,0,3.06.24,4.15.72s1.95,1.12,2.58,1.92c.62.79,1.06,1.72,1.3,2.76.24,1.05.36,2.13.36,3.24,0,1.84-.26,3.66-.79,5.45s-1.32,3.38-2.38,4.79c-1.06,1.4-2.4,2.54-4,3.41-1.6.86-3.48,1.3-5.64,1.3h-7.02l4.98-23.58Z"/><path class="cls-1" d="m238.87,35.71h12.81l1.4,9.15h4.17l-5.49-30.39h-4.43l-18.26,30.39h4.47l5.32-9.15Zm9.96-17.66h.08l2.26,14.26h-10.47l8.13-14.26Z"/><path class="cls-1" d="m353.4,34.77h10.6c.45.03.91.13,1.36.3.45.17.84.48,1.15.94.31.45.52,1.1.62,1.94.1.84.03,1.94-.19,3.3-.31,1.56-.45,2.89-.43,4,.03,1.11.14,1.94.34,2.51h4.21c-.31-.6-.5-1.21-.55-1.83-.06-.63-.06-1.27,0-1.94.06-.67.14-1.33.25-2,.11-.67.2-1.34.26-2.02.08-.76.09-1.5.02-2.21-.07-.71-.23-1.36-.47-1.94-.24-.58-.58-1.08-1.02-1.51-.44-.43-.99-.74-1.64-.94v-.09c1.02-.14,1.95-.45,2.79-.93.84-.48,1.55-1.09,2.15-1.83.6-.74,1.06-1.57,1.41-2.49s.51-1.89.51-2.91c0-1.5-.28-2.75-.83-3.75-.55-.99-1.3-1.78-2.23-2.38-.94-.6-2.01-1.01-3.21-1.25s-2.45-.36-3.72-.36h-11.71l-6.43,30.39h4.04l2.72-12.98Zm2.98-14h8.39c.76,0,1.5.06,2.21.19.71.13,1.34.36,1.89.7.55.34,1,.81,1.34,1.4.34.6.51,1.36.51,2.3,0,.54-.09,1.16-.28,1.85s-.55,1.35-1.09,1.96c-.54.61-1.3,1.13-2.28,1.55s-2.26.64-3.85.64h-9.11l2.26-10.6Z"/><polygon class="cls-1" points="476.56 44.35 459.46 44.35 461.67 33.84 477.46 33.84 478.14 30.43 462.39 30.43 464.44 20.77 481.33 20.77 482.01 17.37 461.07 17.37 454.65 47.76 475.8 47.76 476.56 44.35"/><path class="cls-1" d="m179.18,225.31c-.92.79-1.5,1.75-1.76,2.89,0,.02,0,.06-.02.1s-.02.07-.02.1l-1.63,9.21h17.19l-.39,2.13h-17.15l-1.01,5.69h19.79c1.03,0,2.01-.39,2.92-1.18.92-.79,1.5-1.75,1.76-2.88,0-.03,0-.06.02-.1.01-.04.02-.07.02-.1l1.63-9.22h-17.19l.39-2.13h17.19l1.01-5.69h-19.82c-1.03,0-2.01.39-2.92,1.18Z"/><path class="cls-1" d="m226.63,224.13h-19.79l-3.76,21.3h6.58l1.28-7.09h13.2c1.08,0,2.08-.41,3-1.24s1.48-1.83,1.68-3.02l1.01-5.69c.21-1.19,0-2.19-.64-3.02s-1.49-1.24-2.57-1.24Zm-4.14,8.52h-10.57l.5-2.83h10.57l-.5,2.83Z"/><path class="cls-1" d="m255.32,224.13h-15.84c-1.08,0-2.09.41-3.02,1.24s-1.5,1.83-1.7,3.02l-2.25,12.78c-.21,1.19,0,2.19.64,3.02.63.83,1.49,1.24,2.58,1.24h15.84c1.08,0,2.09-.41,3.02-1.24.93-.83,1.5-1.83,1.7-3.02l2.25-12.78c.21-1.19,0-2.19-.64-3.02s-1.49-1.24-2.57-1.24Zm-5.38,15.61h-10.57l1.74-9.91h10.57l-1.74,9.91Z"/><path class="cls-1" d="m284.01,224.13h-19.78l-3.76,21.3h6.58l1.28-7.09h4.72l4.3,7.09h6.89l-4.3-7.09h1.59c1.08,0,2.08-.41,3-1.24.92-.83,1.48-1.83,1.68-3.02l1.01-5.69c.21-1.19,0-2.19-.64-3.02s-1.49-1.24-2.58-1.24Zm-4.14,8.52h-10.57l.5-2.83h10.57l-.5,2.83Z"/><polygon class="cls-1" points="292.15 229.82 300.74 229.82 297.95 245.42 304.57 245.42 307.32 229.82 315.92 229.82 316.93 224.13 293.15 224.13 292.15 229.82"/><path class="cls-1" d="m322.64,225.31c-.92.79-1.5,1.75-1.76,2.89,0,.02,0,.06-.02.1s-.02.07-.02.1l-1.63,9.21h17.19l-.39,2.13h-17.15l-1.01,5.69h19.79c1.03,0,2.01-.39,2.92-1.18.92-.79,1.5-1.75,1.76-2.88,0-.03,0-.06.02-.1.01-.04.02-.07.02-.1l1.63-9.22h-17.19l.39-2.13h17.19l1.01-5.69h-19.82c-1.03,0-2.01.39-2.92,1.18Z"/></svg>